<?xml version="1.0" encoding="UTF-8"?>
<svg width="378px" height="359px" viewBox="0 0 378 359" version="1.1" xmlns="http://www.w3.org/2000/svg" xmlns:xlink="http://www.w3.org/1999/xlink">
    <!-- Generator: Sketch 49.1 (51147) - http://www.bohemiancoding.com/sketch -->
    <title>Group 18</title>
    <desc>Created with Sketch.</desc>
    <defs></defs>
    <g id="Page-1" stroke="none" stroke-width="1" fill="none" fill-rule="evenodd">
        <g id="Artboard" transform="translate(-282.000000, -209.000000)" stroke="#C52525" stroke-width="15">
            <g id="Group-18" transform="translate(264.000000, 190.000000)">
                <g id="Group-14" transform="translate(32.000000, 50.000000)">
                    <g id="Group-15" transform="translate(67.000000, 85.000000)" stroke-linecap="round" stroke-linejoin="round">
                        <polyline id="Path-20" points="100.599412 95.3362484 133.106735 123 165.467918 91.69503 199.517499 123 237.745202 91.69503"></polyline>
                        <polyline id="Path-19" points="0.884648731 235.052921 164.778576 0.691341699 289.497139 154.04502"></polyline>
                    </g>
                    <g id="Group-15" transform="translate(0.000000, 151.000000)" stroke-linecap="round" stroke-linejoin="round">
                        <polyline id="Path-20" points="46 42.7447158 60.6957044 56 75.3253433 41 90.7182622 56 108 41"></polyline>
                        <polyline id="Path-19" points="0 107 74.9586355 0 132 70.0150753"></polyline>
                    </g>
                    <path d="M232.033303,83.7268383 L232.033303,0.61893498" id="Path-21" stroke-linecap="round" stroke-linejoin="round"></path>
                    <polyline id="Path-21" stroke-linecap="round" stroke-linejoin="round" points="280.819799 38.1728867 232.033303 38.1728867 232.033303 0.61893498 280.819799 0.61893498"></polyline>
                    <path d="M264.590777,3.8142853 L264.590777,35.3053026" id="Path-22"></path>
                </g>
                <circle id="Oval-14" cx="94.5" cy="94.5" r="22.5"></circle>
                <g id="Group-17" transform="translate(25.000000, 26.000000)" stroke-linecap="round" stroke-linejoin="round">
                    <g id="Group-16" transform="translate(67.000000, 0.000000)">
                        <path d="M1.99841473,21.4914084 L1.99841473,0.597741967" id="Path-23"></path>
                        <path d="M2,135.893666 L2,115" id="Path-23"></path>
                    </g>
                    <g id="Group-16" transform="translate(68.500000, 68.000000) rotate(-270.000000) translate(-68.500000, -68.000000) translate(67.000000, 0.000000)">
                        <path d="M1.99841473,21.4914084 L1.99841473,0.597741967" id="Path-23"></path>
                        <path d="M2,135.893666 L2,115" id="Path-23"></path>
                    </g>
                </g>
                <g id="Group-17" transform="translate(93.500000, 94.000000) rotate(-330.000000) translate(-93.500000, -94.000000) translate(25.000000, 26.000000)" stroke-linecap="round" stroke-linejoin="round">
                    <g id="Group-16" transform="translate(67.000000, 0.000000)">
                        <path d="M1.99841473,21.4914084 L1.99841473,0.597741967" id="Path-23"></path>
                        <path d="M2,135.893666 L2,115" id="Path-23"></path>
                    </g>
                    <g id="Group-16" transform="translate(68.500000, 68.000000) rotate(-270.000000) translate(-68.500000, -68.000000) translate(67.000000, 0.000000)">
                        <path d="M1.99841473,21.4914084 L1.99841473,0.597741967" id="Path-23"></path>
                        <path d="M2,135.893666 L2,115" id="Path-23"></path>
                    </g>
                </g>
                <g id="Group-17" transform="translate(93.500000, 94.000000) rotate(-300.000000) translate(-93.500000, -94.000000) translate(25.000000, 26.000000)" stroke-linecap="round" stroke-linejoin="round">
                    <g id="Group-16" transform="translate(67.000000, 0.000000)">
                        <path d="M1.99841473,21.4914084 L1.99841473,0.597741967" id="Path-23"></path>
                        <path d="M2,135.893666 L2,115" id="Path-23"></path>
                    </g>
                    <g id="Group-16" transform="translate(68.500000, 68.000000) rotate(-270.000000) translate(-68.500000, -68.000000) translate(67.000000, 0.000000)">
                        <path d="M1.99841473,21.4914084 L1.99841473,0.597741967" id="Path-23"></path>
                        <path d="M2,135.893666 L2,115" id="Path-23"></path>
                    </g>
                </g>
            </g>
        </g>
    </g>
</svg>