<?xml version="1.0" encoding="UTF-8"?>
<svg width="353px" height="374px" viewBox="0 0 353 374" version="1.1" xmlns="http://www.w3.org/2000/svg" xmlns:xlink="http://www.w3.org/1999/xlink">
    <!-- Generator: Sketch 49.1 (51147) - http://www.bohemiancoding.com/sketch -->
    <title>Group 13</title>
    <desc>Created with Sketch.</desc>
    <defs></defs>
    <g id="Page-1" stroke="none" stroke-width="1" fill="none" fill-rule="evenodd">
        <g id="Artboard" transform="translate(-282.000000, -229.000000)" stroke="#C52525" stroke-width="15">
            <g id="Group-13" transform="translate(290.000000, 237.000000)">
                <g id="Group-12" stroke-linecap="round">
                    <path d="M304.71856,52.2814396 C272.416414,19.979293 227.791414,0 178.5,0 C79.9171722,0 0,79.9171722 0,178.5" id="Oval-13"></path>
                    <polyline id="Path-17" stroke-linejoin="round" points="312.829076 9.88278717 312.829076 62.3581982 263.13837 62.3581982"></polyline>
                </g>
                <g id="Group-12" transform="translate(180.500000, 268.500000) rotate(-180.000000) translate(-180.500000, -268.500000) translate(24.000000, 179.000000)" stroke-linecap="round">
                    <path d="M304.71856,52.2814396 C272.416414,19.979293 227.791414,0 178.5,0 C79.9171722,0 0,79.9171722 0,178.5" id="Oval-13"></path>
                    <polyline id="Path-17" stroke-linejoin="round" points="312.829076 9.88278717 312.829076 62.3581982 263.13837 62.3581982"></polyline>
                </g>
                <polygon id="Path-18" points="113.806429 201.617508 198.308819 69.9847508 198.308819 168.729646 246.049662 168.729646 155.527543 296.073858 155.527543 201.617508"></polygon>
            </g>
        </g>
    </g>
</svg>