<?xml version="1.0" encoding="UTF-8"?>
<svg width="421px" height="511px" viewBox="0 0 421 511" version="1.1" xmlns="http://www.w3.org/2000/svg" xmlns:xlink="http://www.w3.org/1999/xlink">
    <!-- Generator: Sketch 49.1 (51147) - http://www.bohemiancoding.com/sketch -->
    <title>Group 10</title>
    <desc>Created with Sketch.</desc>
    <defs></defs>
    <g id="Page-1" stroke="none" stroke-width="1" fill="none" fill-rule="evenodd">
        <g id="Artboard" transform="translate(-1411.000000, -93.000000)" stroke="#C52D28" stroke-width="15">
            <g id="Group-10" transform="translate(1404.000000, 101.000000)">
                <path d="M78.4043195,210.677702 C70.3051703,242.955297 70.3051703,259.99009 78.4043195,261.782082 C86.5034688,263.574073 100.89928,250.168456 121.591752,221.565232 C124.308125,250.132881 128.588988,263.538498 134.43434,261.782082 C143.202368,259.147458 141.995538,220.8294 152.948667,210.677702 C163.901797,200.526004 178.831262,202.965445 189.573185,210.677702 C200.315108,218.389959 197.417595,223.427027 197.417595,242.604554 C197.417595,261.782082 152.561043,259.174187 167.521792,284.06145 C182.482541,308.948713 203.776714,290.356749 230.121635,316.817891 C256.466557,343.279033 226.615657,410.573719 250.5323,421.205641 C266.476728,428.293589 280.511003,413.880507 292.635125,377.966396" id="Path-2" stroke-linecap="round" stroke-linejoin="round"></path>
                <circle id="Oval-10" cx="313" cy="105" r="41"></circle>
                <path d="M312.5,347 C384.166667,226.91374 420,147.080407 420,107.5 C420,48.1293894 371.870611,0 312.5,0 C253.129389,0 205,48.1293894 205,107.5 C205,147.080407 240.833333,226.91374 312.5,347 Z" id="Oval-9"></path>
                <path d="M194.5,495 C293.635113,495 374,414.635113 374,315.5 C374,303.512456 372.824908,291.799369 370.583631,280.469645 C368.274587,268.797363 364.83391,257.531976 360.380684,246.792571 C351.283112,224.852851 337.959658,205.108323 321.425667,188.574333 C304.891677,172.040342 285.147149,158.716888 263.207429,149.619316 C252.468024,145.16609 241.202637,141.725413 229.530355,139.416369 C223.812938,138.285334 217.997894,137.425814 212.099218,136.851804 C206.308984,136.288347 200.438166,136 194.5,136 C95.3648874,136 15,216.364887 15,315.5 C15,339.837537 19.8435589,363.0438 28.6193156,384.207429 C29.7465455,386.925858 30.9386524,389.610586 32.193705,392.259681" id="Oval-8" transform="translate(194.500000, 315.500000) rotate(185.000000) translate(-194.500000, -315.500000) "></path>
            </g>
        </g>
    </g>
</svg>