<?xml version="1.0" encoding="UTF-8"?>
<svg width="483px" height="479px" viewBox="0 0 483 479" version="1.1" xmlns="http://www.w3.org/2000/svg" xmlns:xlink="http://www.w3.org/1999/xlink">
    <!-- Generator: Sketch 49.1 (51147) - http://www.bohemiancoding.com/sketch -->
    <title>Group 2</title>
    <desc>Created with Sketch.</desc>
    <defs></defs>
    <g id="Page-1" stroke="none" stroke-width="1" fill="none" fill-rule="evenodd" stroke-linecap="round" stroke-linejoin="round">
        <g id="Artboard" transform="translate(-623.000000, -176.000000)" stroke="#FFFFFF" stroke-width="15">
            <g id="Group-2" transform="translate(609.000000, 183.000000)">
                <path d="M373.206355,267.014832 L350.192869,189.842334 L383.00423,180.669146 L444.43738,396.627757 C447.674649,409.352871 444.364269,417.384963 434.506238,420.724033 C424.648208,424.063103 417.51474,418.873108 413.105835,405.154046 L384.00423,307.788874 L301.175729,420.724033 L186.240181,420.724033 L128.772406,420.724033 L100.038519,420.724033 C80.8825946,422.99697 71.3046323,417.605686 71.3046323,404.550181 C71.3046323,391.494677 80.1126095,386.103393 97.728564,388.37633 L124.152496,388.37633 L177.000359,388.37633 L282.696086,388.37633 L373.206355,267.014832 Z" id="Path-6"></path>
                <polyline id="Path-7" points="364.802263 178.316671 318.102807 16.8264199 243.479964 0.976100561"></polyline>
                <path d="M173.980635,386.709529 C161.695108,350.179021 143.492089,326.553751 119.371575,315.833718 C95.2510619,305.113684 64.7309604,301.944131 27.8112707,306.325057" id="Path-8"></path>
                <path d="M123.599406,443.232831 C124.814413,441.752398 125.958181,440.211266 127.025472,438.614673 C129.135195,435.458675 130.946095,432.085971 132.41771,428.53702 C135.277776,421.639682 136.856317,414.076638 136.856317,406.144906 C136.856317,398.213173 135.277776,390.650129 132.41771,383.752791 C129.452763,376.60252 125.110579,370.167674 119.722064,364.779159 C114.333549,359.390644 107.898703,355.04846 100.748432,352.083513 C93.8510935,349.223447 86.2880495,347.644906 78.3563174,347.644906 C70.4245853,347.644906 62.8615413,349.223447 55.9642028,352.083513 C48.8139318,355.04846 42.3790858,359.390644 36.9905707,364.779159 C31.6020556,370.167674 27.2598715,376.60252 24.2949245,383.752791 C21.4348589,390.650129 19.8563174,398.213173 19.8563174,406.144906 C19.8563174,414.076638 21.4348589,421.639682 24.2949245,428.53702 C27.2598715,435.687291 31.6020556,442.122137 36.9905707,447.510652 C42.3790858,452.899167 48.8139318,457.241351 55.9642028,460.206298" id="Oval-2" transform="translate(78.356317, 403.925602) rotate(-60.000000) translate(-78.356317, -403.925602) "></path>
                <path d="M472.35626,447.387885 C477.744775,441.99937 482.086959,435.564523 485.051906,428.414253 C487.911971,421.516914 489.490513,413.95387 489.490513,406.022138 C489.490513,398.090406 487.911971,390.527362 485.051906,383.630023 C482.086959,376.479752 477.744775,370.044906 472.35626,364.656391 C466.967745,359.267876 460.532898,354.925692 453.382628,351.960745 C446.485289,349.100679 438.922245,347.522138 430.990513,347.522138 C423.058781,347.522138 415.495737,349.100679 408.598398,351.960745 C401.448127,354.925692 395.013281,359.267876 389.624766,364.656391 C384.236251,370.044906 379.894067,376.479752 376.92912,383.630023 C374.069054,390.527362 372.490513,398.090406 372.490513,406.022138 C372.490513,413.95387 374.069054,421.516914 376.92912,428.414253 C379.894067,435.564523 384.236251,441.99937 389.624766,447.387885 C395.013281,452.7764 401.448127,457.118584 408.598398,460.083531" id="Oval-2" transform="translate(430.990513, 403.802834) rotate(160.000000) translate(-430.990513, -403.802834) "></path>
            </g>
        </g>
    </g>
</svg>