<?xml version="1.0" encoding="UTF-8"?>
<svg width="553px" height="474px" viewBox="0 0 553 474" version="1.1" xmlns="http://www.w3.org/2000/svg" xmlns:xlink="http://www.w3.org/1999/xlink">
    <!-- Generator: Sketch 49.1 (51147) - http://www.bohemiancoding.com/sketch -->
    <title>Group 6</title>
    <desc>Created with Sketch.</desc>
    <defs></defs>
    <g id="Page-1" stroke="none" stroke-width="1" fill="none" fill-rule="evenodd">
        <g id="Artboard" transform="translate(-1133.000000, -175.000000)" stroke="#FFFFFF" stroke-width="15">
            <g id="Group-6" transform="translate(1141.000000, 183.000000)">
                <g id="Group-4">
                    <path d="M267.566136,0.951797927 L267.566136,88.1040827" id="Path-9" stroke-linecap="round" stroke-linejoin="round"></path>
                    <path d="M87.1705012,264.987531 L0,264.987531" id="Path-9" stroke-linecap="round" stroke-linejoin="round"></path>
                    <path d="M536.591102,264.987531 L449.420601,264.987531" id="Path-9" stroke-linecap="round" stroke-linejoin="round"></path>
                    <path d="M458.358171,458.262385 C506.947114,409.683596 537,342.572624 537,268.44389 C537,120.186423 416.788455,0 268.5,0 C120.211545,0 0,120.186423 0,268.44389 C0,342.572624 30.0528862,409.683596 78.6418293,458.262385" id="Oval-3"></path>
                    <g id="Group-3" transform="translate(267.785386, 269.775373) rotate(-315.000000) translate(-267.785386, -269.775373) translate(-0.714614, 267.275373)" stroke-linecap="round" stroke-linejoin="round">
                        <path d="M536.393388,0.477223606 L449.222887,0.477223606" id="Path-9"></path>
                        <path d="M88.1251479,3.73591022 L0.954646708,3.73591022" id="Path-9"></path>
                    </g>
                    <g id="Group-3" transform="translate(267.493230, 267.085637) rotate(-45.000000) translate(-267.493230, -267.085637) translate(-1.506770, 264.585637)" stroke-linecap="round" stroke-linejoin="round">
                        <path d="M537.080981,0.337448048 L449.91048,0.337448048" id="Path-9"></path>
                        <path d="M87.183057,3.59613466 L0.0125557414,3.59613466" id="Path-9"></path>
                    </g>
                </g>
                <g id="Group-5" transform="translate(290.000000, 246.000000) rotate(-45.000000) translate(-290.000000, -246.000000) translate(189.000000, 145.000000)">
                    <g id="Group-7" transform="translate(37.807612, 65.292893)">
                        <circle id="Oval-6" cx="33.5" cy="33.5" r="33.5"></circle>
                        <path d="M33.5416161,67 C45.8912981,67 79.0440928,54.9874478 133,30.9623433 C79.0440928,10.3207811 45.8912981,0 33.5416161,0 C15.017093,0 0,14.9984609 0,33.5 C0,52.0015391 15.017093,67 33.5416161,67 Z" id="Oval-6" stroke-linecap="round" stroke-linejoin="round"></path>
                    </g>
                </g>
            </g>
        </g>
    </g>
</svg>