<?xml version="1.0" encoding="UTF-8"?>
<svg width="342px" height="345px" viewBox="0 0 342 345" version="1.1" xmlns="http://www.w3.org/2000/svg" xmlns:xlink="http://www.w3.org/1999/xlink">
    <!-- Generator: Sketch 49.1 (51147) - http://www.bohemiancoding.com/sketch -->
    <title>Group 24</title>
    <desc>Created with Sketch.</desc>
    <defs></defs>
    <g id="Page-1" stroke="none" stroke-width="1" fill="none" fill-rule="evenodd" stroke-linecap="round" stroke-linejoin="round">
        <g id="Artboard" transform="translate(-230.000000, -242.000000)" stroke="#C52D28" stroke-width="15">
            <g id="Group-24" transform="translate(238.000000, 241.000000)">
                <path d="M0.0851956247,338.223096 L200.33492,138.245043" id="Path-34"></path>
                <path d="M53.6323355,278.685253 L84.244483,133.025254 C85.3803602,127.620476 90.682609,124.159848 96.0873872,125.295725 C97.8500325,125.666165 99.4799059,126.505794 100.804837,127.725919 L109.487678,135.721919 C111.518988,137.592545 114.682132,137.462286 116.552758,135.430976 C116.979268,134.96783 117.314466,134.428297 117.540728,133.840743 L145.271036,61.8313094 C147.255766,56.6774086 153.042769,54.1082878 158.19667,56.0930174 C159.705339,56.6739948 161.050658,57.6120867 162.117348,58.8269078 L172.795168,70.9875604 C174.617175,73.0625906 177.776349,73.2677061 179.851379,71.4456987 C180.234807,71.1090248 180.56444,70.715642 180.828826,70.2792174 L213.628619,16.1362696 C217.92102,9.05076022 227.144639,6.78649848 234.230148,11.0788995 C234.987915,11.5379544 235.703521,12.0632422 236.368573,12.6486024 L251.065984,25.5848395 C254.833371,28.9007854 260.009509,30.1128619 264.85745,28.8143349 L320.215173,13.9867006" id="Path-35"></path>
                <path d="M61.9139559,287.541559 L92.5261035,141.881561 C93.6619806,136.476782 98.9642295,133.016154 104.369008,134.152032 C106.131653,134.522472 107.761526,135.362101 109.086457,136.582226 L117.769299,144.578226 C119.800608,146.448852 122.963752,146.318592 124.834379,144.287283 C125.260888,143.824137 125.596086,143.284604 125.822349,142.69705 L153.552657,70.6876162 C155.537386,65.5337154 161.32439,62.9645946 166.47829,64.9493242 C167.986959,65.5303016 169.332279,66.4683935 170.398968,67.6832146 L181.076789,79.8438673 C182.898796,81.9188974 186.057969,82.1240129 188.132999,80.3020055 C188.516427,79.9653316 188.84606,79.5719488 189.110446,79.1355242 L221.91024,24.9925764 C226.202641,17.907067 235.426259,15.6428053 242.511769,19.9352063 C243.269535,20.3942612 243.985141,20.9195491 244.650194,21.5049092 L259.347604,34.4411463 C263.114992,37.7570922 268.291129,38.9691687 273.13907,37.6706417 L328.496793,22.8430075" id="Path-35" transform="translate(195.205375, 148.602509) scale(-1, 1) rotate(-90.000000) translate(-195.205375, -148.602509) "></path>
            </g>
        </g>
    </g>
</svg>