<?xml version="1.0" encoding="UTF-8"?>
<svg width="412px" height="354px" viewBox="0 0 412 354" version="1.1" xmlns="http://www.w3.org/2000/svg" xmlns:xlink="http://www.w3.org/1999/xlink">
    <!-- Generator: Sketch 49.1 (51147) - http://www.bohemiancoding.com/sketch -->
    <title>Group 11</title>
    <desc>Created with Sketch.</desc>
    <defs></defs>
    <g id="Page-1" stroke="none" stroke-width="1" fill="none" fill-rule="evenodd">
        <g id="Artboard" transform="translate(-261.000000, -242.000000)" stroke="#C52525" stroke-width="15">
            <g id="Group-11" transform="translate(269.000000, 250.000000)">
                <path d="M198,338.007143 L338.007143,338.007143 C376.669048,281.119841 396,234.450793 396,198 C396,88.6476195 307.35238,0 198,0 C88.6476195,0 0,88.6476195 0,198 C0,234.450793 19.3309524,281.119841 57.9928573,338.007143 L198,338.007143 Z" id="Oval-11"></path>
                <circle id="Oval-12" cx="198.5" cy="216.5" r="27.5"></circle>
                <path d="M225,195.323284 L268.323284,152" id="Path-3" stroke-linecap="round" stroke-linejoin="round"></path>
                <path d="M200.003609,31.8263765 L200.003609,54.5" id="Path-11" stroke-linecap="round" stroke-linejoin="round"></path>
                <path d="M337,197 L359.673624,197" id="Path-11" stroke-linecap="round" stroke-linejoin="round"></path>
                <path d="M42,198 L64.6736235,198" id="Path-11" stroke-linecap="round" stroke-linejoin="round"></path>
                <path d="M103,94 L114.336812,113.635934" id="Path-11" stroke-linecap="round" stroke-linejoin="round"></path>
                <path d="M304.032673,98 L288,114.032673" id="Path-11" stroke-linecap="round" stroke-linejoin="round"></path>
            </g>
        </g>
    </g>
</svg>