<?xml version="1.0" encoding="UTF-8"?>
<svg width="390px" height="501px" viewBox="0 0 390 501" version="1.1" xmlns="http://www.w3.org/2000/svg" xmlns:xlink="http://www.w3.org/1999/xlink">
    <!-- Generator: Sketch 49.1 (51147) - http://www.bohemiancoding.com/sketch -->
    <title>Group 9</title>
    <desc>Created with Sketch.</desc>
    <defs></defs>
    <g id="Page-1" stroke="none" stroke-width="1" fill="none" fill-rule="evenodd">
        <g id="Artboard" transform="translate(-935.000000, -164.000000)" stroke="#C52D28" stroke-width="15">
            <g id="Group-9" transform="translate(943.000000, 172.000000)">
                <circle id="Oval-8" cx="133" cy="244" r="133"></circle>
                <path d="M146,343.194342 C154.097166,343.194342 160.382873,342.159992 164.857119,340.09129 C130.305083,304.891673 113.029065,272.194576 113.029065,242 C113.029065,211.455329 130.246003,178.596051 164.679878,143.422165 C159.973698,142.008142 153.747072,141.301131 146,141.301131 C88.562386,141.301131 42,184.562386 42,242 C42,299.437614 88.562386,343.194342 146,343.194342 Z" id="Oval-8"></path>
                <path d="M133.04307,68.858498 L133.04307,0.195956697" id="Path-16" stroke-linecap="round" stroke-linejoin="round"></path>
                <path d="M133,484.662541 L133,416" id="Path-16" stroke-linecap="round" stroke-linejoin="round"></path>
                <path d="M373.662541,243 L305,243" id="Path-16" stroke-linecap="round" stroke-linejoin="round"></path>
                <path d="M304.551749,63 L256,111.551749" id="Path-16" stroke-linecap="round" stroke-linejoin="round"></path>
                <path d="M305.551749,422.551749 L257,374" id="Path-16" stroke-linecap="round" stroke-linejoin="round"></path>
            </g>
        </g>
    </g>
</svg>