<?xml version="1.0" encoding="UTF-8"?>
<svg width="306px" height="342px" viewBox="0 0 306 342" version="1.1" xmlns="http://www.w3.org/2000/svg" xmlns:xlink="http://www.w3.org/1999/xlink">
    <!-- Generator: Sketch 49.1 (51147) - http://www.bohemiancoding.com/sketch -->
    <title>Group 22</title>
    <desc>Created with Sketch.</desc>
    <defs></defs>
    <g id="Page-1" stroke="none" stroke-width="1" fill="none" fill-rule="evenodd">
        <g id="Artboard" transform="translate(-222.000000, -264.000000)" stroke="#C52D28" stroke-width="15">
            <g id="Group-22" transform="translate(222.000000, 264.000000)">
                <path d="M268.664896,110.461195 C283.429926,108.103072 292.397948,104.014769 295.779223,98.9940883 C298.023905,95.6610761 298.780461,90.3635201 297.64543,82.8759295 C297.089681,79.2097562 293.9382,76.4999995 290.230144,76.4999995 L246.89634,76.5 C243.270498,76.5 240.163851,79.0938492 239.516749,82.6614794 C238.315526,89.2841263 239.252497,94.5866419 242.220777,98.9940883 C246.639944,105.555882 255.232969,109.50222 268.664896,110.461195 Z" id="Rectangle-4"></path>
                <rect id="Rectangle-3" x="31.5" y="7.5" width="171" height="287" rx="15"></rect>
                <rect id="Rectangle-3" x="7.5" y="294.5" width="221" height="40" rx="15"></rect>
                <path d="M30.7947978,143.559975 L203.576207,143.559975" id="Path-25"></path>
                <polyline id="Path-26" stroke-linecap="round" stroke-linejoin="round" points="81.2050071 206.20583 106.953611 232.701209 123.665228 219.45352 152.471573 246.879845"></polyline>
                <path d="M203.465905,243.734975 C212.121419,265.279693 224.710035,276.052052 241.231754,276.052052 C257.753473,276.052052 267.190515,265.279693 269.542879,243.734975 L269.542879,116.920788" id="Path-27"></path>
                <path d="M281.427059,72.2817527 L281.427059,50.3317719" id="Path-28"></path>
                <path d="M256,71.9499807 L256,50" id="Path-28"></path>
            </g>
        </g>
    </g>
</svg>