<?xml version="1.0" encoding="UTF-8"?>
<svg width="366px" height="366px" viewBox="0 0 366 366" version="1.1" xmlns="http://www.w3.org/2000/svg" xmlns:xlink="http://www.w3.org/1999/xlink">
    <!-- Generator: Sketch 49.1 (51147) - http://www.bohemiancoding.com/sketch -->
    <title>Group 20</title>
    <desc>Created with Sketch.</desc>
    <defs></defs>
    <g id="Page-1" stroke="none" stroke-width="1" fill="none" fill-rule="evenodd">
        <g id="Artboard" transform="translate(-195.000000, -253.000000)">
            <g id="Group-20" transform="translate(142.000000, 199.000000)">
                <circle id="Oval-15" stroke="#C52D28" stroke-width="15" cx="236" cy="237" r="175"></circle>
                <circle id="Oval-16" stroke="#C52D28" stroke-width="15" cx="236" cy="237" r="35"></circle>
                <circle id="Oval-17" fill="#C52D28" cx="236.5" cy="236.5" r="7.5"></circle>
                <g id="Group-21" transform="translate(64.000000, 64.000000)" stroke="#C52D28" stroke-width="15">
                    <g id="Group-19" transform="translate(171.000000, 0.000000)">
                        <path d="M1.98012216,0.148462786 L1.98012216,136.938836" id="Path-24"></path>
                        <path d="M2,208 L2,344.790374" id="Path-24"></path>
                    </g>
                    <g id="Group-19" transform="translate(172.500000, 172.500000) rotate(-270.000000) translate(-172.500000, -172.500000) translate(171.000000, 0.000000)">
                        <path d="M1.98012216,0.148462786 L1.98012216,136.938836" id="Path-24"></path>
                        <path d="M2,208 L2,344.790374" id="Path-24"></path>
                    </g>
                    <g id="Group-19" transform="translate(171.000000, 0.000000)">
                        <path d="M1.98012216,0.148462786 L1.98012216,136.938836" id="Path-24"></path>
                        <path d="M2,208 L2,344.790374" id="Path-24"></path>
                    </g>
                    <g id="Group-19" transform="translate(172.500000, 172.500000) rotate(-270.000000) translate(-172.500000, -172.500000) translate(171.000000, 0.000000)">
                        <path d="M1.98012216,0.148462786 L1.98012216,136.938836" id="Path-24"></path>
                        <path d="M2,208 L2,344.790374" id="Path-24"></path>
                    </g>
                </g>
                <g id="Group-21" transform="translate(236.500000, 236.500000) rotate(-330.000000) translate(-236.500000, -236.500000) translate(64.000000, 64.000000)" stroke="#C52D28" stroke-width="15">
                    <g id="Group-19" transform="translate(171.000000, 0.000000)">
                        <path d="M1.98012216,0.148462786 L1.98012216,136.938836" id="Path-24"></path>
                        <path d="M2,208 L2,344.790374" id="Path-24"></path>
                    </g>
                    <g id="Group-19" transform="translate(172.500000, 172.500000) rotate(-270.000000) translate(-172.500000, -172.500000) translate(171.000000, 0.000000)">
                        <path d="M1.98012216,0.148462786 L1.98012216,136.938836" id="Path-24"></path>
                        <path d="M2,208 L2,344.790374" id="Path-24"></path>
                    </g>
                    <g id="Group-19" transform="translate(171.000000, 0.000000)">
                        <path d="M1.98012216,0.148462786 L1.98012216,136.938836" id="Path-24"></path>
                        <path d="M2,208 L2,344.790374" id="Path-24"></path>
                    </g>
                    <g id="Group-19" transform="translate(172.500000, 172.500000) rotate(-270.000000) translate(-172.500000, -172.500000) translate(171.000000, 0.000000)">
                        <path d="M1.98012216,0.148462786 L1.98012216,136.938836" id="Path-24"></path>
                        <path d="M2,208 L2,344.790374" id="Path-24"></path>
                    </g>
                </g>
                <g id="Group-21" transform="translate(236.500000, 236.500000) rotate(-300.000000) translate(-236.500000, -236.500000) translate(64.000000, 64.000000)" stroke="#C52D28" stroke-width="15">
                    <g id="Group-19" transform="translate(171.000000, 0.000000)">
                        <path d="M1.98012216,0.148462786 L1.98012216,136.938836" id="Path-24"></path>
                        <path d="M2,208 L2,344.790374" id="Path-24"></path>
                    </g>
                    <g id="Group-19" transform="translate(172.500000, 172.500000) rotate(-270.000000) translate(-172.500000, -172.500000) translate(171.000000, 0.000000)">
                        <path d="M1.98012216,0.148462786 L1.98012216,136.938836" id="Path-24"></path>
                        <path d="M2,208 L2,344.790374" id="Path-24"></path>
                    </g>
                    <g id="Group-19" transform="translate(171.000000, 0.000000)">
                        <path d="M1.98012216,0.148462786 L1.98012216,136.938836" id="Path-24"></path>
                        <path d="M2,208 L2,344.790374" id="Path-24"></path>
                    </g>
                    <g id="Group-19" transform="translate(172.500000, 172.500000) rotate(-270.000000) translate(-172.500000, -172.500000) translate(171.000000, 0.000000)">
                        <path d="M1.98012216,0.148462786 L1.98012216,136.938836" id="Path-24"></path>
                        <path d="M2,208 L2,344.790374" id="Path-24"></path>
                    </g>
                </g>
            </g>
        </g>
    </g>
</svg>